<?xml version="1.0" encoding="utf-8"?>
<svg version="1.1" id="Group_380" xmlns="http://www.w3.org/2000/svg" xmlns:xlink="http://www.w3.org/1999/xlink" x="0px" y="0px"
	 viewBox="0 0 90.7 53.1" enable-background="new 0 0 90.7 53.1" xml:space="preserve">
<path id="Path_1280" fill="#013A5E" d="M89.6,25.1c-3.8-4.6-8.1-8.8-12.8-12.5c-4.3-3.4-9-6.3-14-8.6c-5.5-2.5-11.4-3.9-17.5-4
	c-6,0.1-12,1.4-17.5,4c-5,2.3-9.7,5.2-14,8.6c-4.7,3.7-9,7.9-12.8,12.5L0,26.5l1.1,1.4c3.8,4.6,8.1,8.8,12.8,12.5
	c4.3,3.4,9,6.3,14,8.6c5.5,2.5,11.4,3.9,17.5,4c6-0.1,12-1.4,17.5-4c5-2.3,9.7-5.2,14-8.6c4.7-3.7,9-7.9,12.8-12.5l1.1-1.4
	L89.6,25.1z M45.4,47.1c-11.4,0-20.6-9.2-20.6-20.6c0-11.4,9.2-20.6,20.6-20.6C56.8,5.9,66,15.1,66,26.5
	C66,37.9,56.7,47.1,45.4,47.1L45.4,47.1z"/>
<path id="Path_1281" fill="#013A5E" d="M45.4,12.9c-2,0-4,0.4-5.8,1.3c2.4,1.2,3.3,4.2,2,6.5c-1.2,2.4-4.2,3.3-6.5,2
	c-0.9-0.5-1.6-1.2-2-2c-3.2,6.8-0.3,14.9,6.5,18.1s14.9,0.3,18.1-6.5c3.2-6.8,0.3-14.9-6.5-18.1C49.3,13.3,47.4,12.9,45.4,12.9z"/>
</svg>
